<svg xmlns="http://www.w3.org/2000/svg" width="800" height="500" viewBox="0 0 800 500">
  <defs>
    <linearGradient id="bg4" x1="0" y1="1" x2="1" y2="0">
      <stop offset="0%" stop-color="#0a0a0a"/>
      <stop offset="100%" stop-color="#0e1a16"/>
    </linearGradient>
  </defs>
  <rect width="800" height="500" fill="url(#bg4)"/>
  <g stroke="#3effa3" stroke-width="4" stroke-linecap="round" opacity="0.85">
    <line x1="140" y1="250" x2="140" y2="250"/>
    <line x1="170" y1="200" x2="170" y2="300"/>
    <line x1="200" y1="150" x2="200" y2="350"/>
    <line x1="230" y1="180" x2="230" y2="320"/>
    <line x1="260" y1="220" x2="260" y2="280"/>
    <line x1="290" y1="120" x2="290" y2="380"/>
    <line x1="320" y1="170" x2="320" y2="330"/>
    <line x1="350" y1="230" x2="350" y2="270"/>
    <line x1="380" y1="100" x2="380" y2="400"/>
    <line x1="410" y1="190" x2="410" y2="310"/>
    <line x1="440" y1="150" x2="440" y2="350"/>
    <line x1="470" y1="210" x2="470" y2="290"/>
    <line x1="500" y1="140" x2="500" y2="360"/>
    <line x1="530" y1="220" x2="530" y2="280"/>
    <line x1="560" y1="170" x2="560" y2="330"/>
    <line x1="590" y1="200" x2="590" y2="300"/>
    <line x1="620" y1="230" x2="620" y2="270"/>
  </g>
  <text x="60" y="400" font-family="ui-monospace, 'JetBrains Mono', monospace" font-size="42" fill="#e5e5e5" letter-spacing="-1">LoopCast</text>
  <text x="60" y="440" font-family="ui-monospace, 'JetBrains Mono', monospace" font-size="18" fill="#8a8a8a">audio / podcast tooling</text>
</svg>
